<svg width="65" height="64" viewBox="0 0 65 64" fill="none" xmlns="http://www.w3.org/2000/svg">
<path d="M4.47904 1.94476C4.47904 1.33928 4.47904 0.733804 4.47904 0.128329C4.47904 0.0608291 4.52835 0.0244521 4.64031 0.00585938C5.02591 0.421366 4.79148 1.00502 5.04369 1.48438C5.4596 1.78753 5.95958 1.67759 6.43006 1.67759C21.4837 1.68365 36.5373 1.68244 51.5909 1.68244C54.2299 1.68244 56.8692 1.6792 59.5082 1.68527C59.9079 1.68607 60.321 1.63595 60.6868 1.86917C61.1088 2.48556 60.9629 3.14601 60.8363 3.80403C60.3946 4.34038 59.701 3.94064 59.1472 4.26884C58.8797 4.77327 59.0676 5.32216 59.1424 5.86741C59.1262 6.46561 59.3946 7.10706 58.876 7.62766C58.2948 7.29097 58.7637 6.61233 58.3579 6.15317C58.0418 5.97088 57.6578 6.05496 57.2674 6.11518C56.9109 6.69842 57.1279 7.26833 57.2043 7.83339C57.1849 8.42472 57.4585 9.06334 56.9242 9.56938C56.3684 9.21976 56.8118 8.5488 56.4634 8.13208C56.0935 8.02457 55.6987 8.01999 55.2792 8.11834C54.98 8.68825 55.2068 9.2816 55.2876 9.87333C55.3313 10.2238 55.326 10.5742 55.326 10.9242C55.3273 25.1157 55.3268 39.3068 55.326 53.4983C55.326 53.7404 55.3378 53.9833 55.3022 54.2238C55.2598 54.8948 55.4792 55.594 55.0908 56.2286C54.6413 56.227 54.7101 55.8563 54.6757 55.5989C54.6163 55.153 54.6462 54.7007 54.6636 54.2509C54.624 53.9287 54.6397 53.6054 54.6397 53.2824C54.6393 39.3626 54.6397 25.4427 54.6365 11.5228C54.6365 11.0701 54.7028 10.6069 54.5209 10.1745C53.8572 9.90001 11.7403 9.8604 10.8802 10.1336C10.6413 10.5483 10.7246 11.0156 10.7246 11.465C10.7201 25.2232 10.7217 38.9818 10.7185 52.74C10.7185 53.2222 10.7686 53.7097 10.6316 54.185C10.569 54.3434 10.4865 54.4792 10.2876 54.4772C10.2096 54.3988 10.1535 54.3071 10.1183 54.2024C10.0189 53.8887 10.0354 53.5638 10.0354 53.2412C10.033 38.9467 10.0326 24.6521 10.0346 10.3576C10.0346 10.1963 10.0334 10.0346 10.052 9.87576C10.0277 9.30019 10.1607 8.71088 9.94853 8.15876C9.60012 7.93929 9.27111 7.96354 8.93199 8.09975C8.53023 8.57629 8.99383 9.29292 8.47566 9.73186C7.84836 9.19914 8.20283 8.48494 8.12483 7.85198C8.07673 7.30269 8.23355 6.7348 8.00478 6.20208C7.66122 5.99635 7.32979 6.02626 6.99512 6.15762C6.58406 6.63497 7.0614 7.35766 6.52909 7.79337C5.90704 7.25742 6.26353 6.54483 6.18553 5.91187C6.15198 5.36056 6.26434 4.79591 6.09539 4.27935C5.71788 4.05907 5.38644 4.08575 5.05662 4.21994C4.64233 4.69769 5.13261 5.42685 4.57847 5.85367C3.97865 5.27932 4.3206 4.54612 4.24259 3.88365C4.27896 3.23169 4.06232 2.54902 4.47823 1.94354L4.47904 1.94476Z" fill="#B1C6C7"/>
<path d="M10.3011 9.7017V54.2991C9.85281 54.6973 9.24168 54.3828 8.7518 54.648C8.4434 55.1006 8.69602 55.656 8.49352 56.1281C8.45755 56.2089 8.40258 56.2744 8.33023 56.3253C7.84561 56.5897 7.26398 56.3185 6.7741 56.5957C6.51785 57.0666 6.74985 57.6086 6.54735 58.0819C6.50976 58.1624 6.45318 58.2254 6.3788 58.2731C5.90792 58.5035 5.36914 58.2998 4.86027 58.5015C4.55712 58.9704 4.82268 59.5516 4.59997 60.0394C4.55914 60.1195 4.49932 60.1805 4.42172 60.225C4.005 60.4258 3.51715 60.252 3.10326 60.4566C2.75161 60.9456 3.12468 61.6004 2.70472 62.0551C2.6445 62.0733 2.59357 62.0575 2.57134 61.9998C2.55356 61.9541 2.54467 61.9023 2.54426 61.8534C2.54264 61.2742 2.54305 60.695 2.54305 60.1162C2.19504 59.7007 2.28316 59.1983 2.28275 58.7222C2.27669 52.4253 2.27871 46.128 2.27871 39.8312C2.27871 28.3405 2.27709 16.8498 2.28316 5.3591C2.28316 4.8579 2.17968 4.3268 2.54305 3.88421C2.54305 3.27873 2.54305 2.67326 2.54305 2.06778C2.54305 2.00028 2.59236 1.96391 2.70432 1.94531C3.10406 2.38911 2.80173 2.9962 3.06203 3.49134C3.47592 3.80822 4.0818 3.49134 4.48194 3.88421C4.48194 4.48968 4.48194 5.09516 4.48194 5.70064C4.48194 5.76813 4.53126 5.80451 4.64322 5.8231C5.23576 5.47106 5.8283 5.47106 6.42084 5.8231C6.42084 6.42858 6.42084 7.03406 6.42084 7.63953C6.42084 7.70703 6.47015 7.74341 6.58211 7.762C7.17465 7.40995 7.76719 7.40995 8.35974 7.762C8.35974 8.36748 8.35974 8.97295 8.35974 9.57843C8.35974 9.64593 8.40905 9.6823 8.52101 9.7009C9.11355 9.34885 9.70609 9.34885 10.2986 9.7009L10.3011 9.7017Z" fill="#8CA6A6"/>
<path d="M54.904 54.2985C54.904 54.904 54.904 55.5095 54.904 56.1149C54.904 56.1824 54.9533 56.2188 55.0653 56.2374C55.5887 55.8837 56.1517 55.9949 56.7135 56.0959C56.7988 56.1307 56.8696 56.1865 56.9249 56.2596C57.1905 56.7455 56.9387 57.3259 57.1804 57.8133C57.6678 58.0846 58.2135 57.8473 58.688 58.0514C58.7684 58.089 58.8319 58.146 58.8796 58.2208C59.1112 58.6941 58.9018 59.2377 59.1027 59.7244C59.5869 60.0558 60.1791 59.7607 60.6673 60.0121C60.7506 60.0623 60.8108 60.131 60.852 60.2183C60.9761 60.8427 61.0945 61.466 60.7219 62.0545C60.306 62.4017 59.8032 62.3128 59.327 62.3132C52.1664 62.3188 45.0062 62.3168 37.8456 62.3172C27.3738 62.3172 16.9025 62.3164 6.43078 62.3205C5.98011 62.3205 5.51448 62.2457 5.08362 62.4745C4.75744 62.932 5.05088 63.567 4.64184 63.9938C4.58161 64.012 4.53069 63.9962 4.50846 63.9384C4.49067 63.8928 4.48178 63.841 4.48137 63.7921C4.47976 63.2129 4.48016 62.6337 4.48016 62.0549C4.11599 61.4086 4.11599 60.7623 4.48016 60.116C4.92356 59.7171 5.53025 60.0166 6.02538 59.7559C6.36288 59.2894 5.99668 58.6302 6.41946 58.1771C6.86286 57.7782 7.46955 58.0777 7.96468 57.817C8.30218 57.3505 7.93598 56.6913 8.35876 56.2382C8.80297 55.8381 9.41167 56.142 9.90034 55.8813C10.2342 55.4678 9.88821 54.8555 10.2981 54.461C10.427 54.44 10.4387 54.4283 10.4597 54.2993C10.9019 53.9364 11.433 54.0402 11.9342 54.0398C22.4019 54.0338 32.87 54.0354 43.3377 54.0354C46.7551 54.0354 50.1725 54.0322 53.5904 54.039C54.041 54.0398 54.5147 53.9679 54.9036 54.2993L54.904 54.2985Z" fill="#677A79"/>
<path d="M56.844 9.53939C56.9043 9.55758 56.9548 9.54181 56.9774 9.48442C56.9952 9.43915 57.0045 9.38741 57.0045 9.33851C57.0065 8.81306 57.0057 8.28762 57.0057 7.76217C57.5691 7.3887 58.1791 7.52249 58.7833 7.60049C58.8436 7.61868 58.8941 7.60292 58.9167 7.54553C58.9345 7.50026 58.9438 7.44852 58.9438 7.39961C58.9458 6.87417 58.945 6.34872 58.945 5.82327C59.3338 5.44455 59.8884 5.71293 60.3322 5.46314C60.6677 4.99954 60.299 4.3399 60.7226 3.88438V1.94508C60.3585 1.29878 60.3585 0.652481 60.7226 0.00618296C60.7829 -0.0120056 60.8338 0.00375782 60.856 0.0615569C60.8738 0.10723 60.8827 0.158966 60.8831 0.207873C60.8847 0.787077 60.8843 1.36628 60.8843 1.94508C61.2845 2.38888 60.9817 2.99597 61.242 3.4911C61.6559 3.80799 62.2614 3.4911 62.6619 3.88397C63.0095 4.29948 62.9218 4.80189 62.9222 5.27802C62.9283 11.5482 62.9263 17.818 62.9263 24.0882C62.9263 35.6056 62.9279 47.1233 62.9218 58.6407C62.9218 59.1419 63.0249 59.673 62.6619 60.1152C62.0156 60.479 61.3689 60.479 60.7226 60.1152C60.3281 59.6706 60.6147 59.0671 60.375 58.5793C59.8957 58.2329 59.2368 58.5991 58.7833 58.1759C58.3876 57.7317 58.677 57.1278 58.4329 56.6379C57.9564 56.2936 57.2975 56.6594 56.844 56.2366C56.4447 55.7928 56.7466 55.1861 56.4851 54.691C56.072 54.3733 55.4661 54.6906 55.0664 54.2977V9.70107C55.6298 9.32759 56.2398 9.46138 56.844 9.53939Z" fill="#8CA6A6"/>
<path d="M62.6602 60.1154V3.88379C63.2794 3.88379 63.899 3.88379 64.5182 3.88379C64.5453 3.92623 64.5942 3.96826 64.5958 4.01151C64.6039 4.22654 64.5995 4.44197 64.5995 4.65741V59.3414C64.5995 59.5568 64.6003 59.7722 64.5982 59.9877C64.5982 60.0115 64.5833 60.035 64.5764 60.056C64.5558 60.077 64.5372 60.113 64.5182 60.113C63.899 60.1158 63.2794 60.1154 62.6602 60.1154Z" fill="#000001"/>
<path d="M2.54208 3.88381V60.1154C1.92286 60.1154 1.30324 60.1154 0.684024 60.1154C0.656944 60.073 0.608037 60.0309 0.60642 59.9877C0.598336 59.7727 0.602782 59.5572 0.602782 59.3418V4.65783C0.602782 4.4424 0.601974 4.22697 0.603995 4.01153C0.603995 3.98769 0.61895 3.96424 0.626225 3.94322C0.646839 3.92221 0.665432 3.88623 0.684429 3.88623C1.30365 3.8834 1.92327 3.88381 2.54249 3.88381H2.54208Z" fill="#010101"/>
<path d="M60.7207 0.00626356V1.94516C42.0694 1.94516 23.4185 1.94516 4.76716 1.94395C4.74371 1.94395 4.72027 1.92859 4.70693 1.92374C4.68026 1.89908 4.64347 1.88089 4.64307 1.8627C4.64024 1.24389 4.64064 0.625077 4.64064 0.00585938H60.7207V0.00626356Z" fill="black"/>
<path d="M4.64062 63.9937C4.64062 63.3749 4.64062 62.756 4.64062 62.1368C4.68266 62.1093 4.72429 62.0596 4.76714 62.0584C5.00925 62.0507 5.25135 62.0548 5.49387 62.0548H60.7207C60.7207 62.6736 60.7207 63.2924 60.7207 63.9116C60.6786 63.9391 60.637 63.9888 60.5942 63.99C60.352 63.9977 60.1099 63.9937 59.8674 63.9937H4.64062Z" fill="#020202"/>
<path d="M60.7227 60.1162H62.662C62.662 60.7282 62.662 61.3401 62.6603 61.9516C62.6603 61.9727 62.6353 61.9937 62.6215 62.0147C62.6005 62.028 62.5795 62.0535 62.5585 62.0535C61.9465 62.0555 61.3346 62.0551 60.7227 62.0551V60.1162Z" fill="#070808"/>
<path d="M62.6605 3.88424C62.1019 3.88424 61.5437 3.88465 60.9851 3.88262C60.9641 3.88262 60.9431 3.85676 60.9225 3.84342C60.9091 3.8224 60.8845 3.80138 60.8845 3.77996C60.8824 3.16842 60.8828 2.55688 60.8828 1.94535C61.4414 1.94535 61.9996 1.94494 62.5582 1.94696C62.5792 1.94696 62.6002 1.97283 62.6209 1.98617C62.6342 2.00719 62.6589 2.0282 62.6589 2.04963C62.6609 2.66116 62.6605 3.2727 62.6605 3.88424Z" fill="#020203"/>
<path d="M4.48469 3.88421C3.9261 3.88421 3.36791 3.88461 2.80932 3.88259C2.78831 3.88259 2.76729 3.85672 2.74667 3.84339C2.73334 3.82237 2.70868 3.80135 2.70868 3.77993C2.70666 3.16839 2.70706 2.55685 2.70706 1.94531H4.48469V3.88421Z" fill="#040404"/>
<path d="M4.48466 60.1153V62.0542H2.70703C2.70703 61.4426 2.70703 60.8311 2.70865 60.2196C2.70865 60.1985 2.7333 60.1775 2.74664 60.1561C2.76766 60.1423 2.78827 60.1169 2.80929 60.1169C3.36788 60.1149 3.92607 60.1153 4.48466 60.1153Z" fill="#090A0A"/>
<path d="M54.9048 54.2985H10.4609C10.4609 39.4611 10.4609 24.6237 10.4609 9.78632C10.5022 9.75803 10.5422 9.70669 10.5846 9.70467C10.7726 9.69578 10.9613 9.70063 11.1501 9.70063C25.5053 9.70063 39.8605 9.70063 54.2156 9.70225C54.427 9.70225 54.6413 9.67274 54.845 9.72124C54.8688 9.74711 54.9024 9.76651 54.9024 9.78592C54.9048 24.6233 54.9044 39.4607 54.9044 54.2981L54.9048 54.2985Z" fill="#F7F9F9"/>
<path d="M10.2987 54.4596C10.2987 55.0177 10.2991 55.5763 10.2971 56.1345C10.2971 56.1555 10.2712 56.1762 10.2579 56.1972C10.2369 56.2105 10.2158 56.2352 10.1944 56.2352C9.58289 56.2372 8.97135 56.2368 8.35941 56.2368C8.35941 55.6248 8.359 55.0129 8.36102 54.4014C8.36102 54.3803 8.38608 54.3593 8.39983 54.3383C8.42084 54.325 8.44186 54.2995 8.46288 54.2995C9.07482 54.2975 9.68677 54.2979 10.2987 54.2979V54.4596Z" fill="#F7F9F9"/>
<path d="M56.8439 9.53915C56.8621 9.59937 56.8464 9.6499 56.789 9.67253C56.7437 9.69032 56.692 9.69961 56.643 9.69961C56.1176 9.70163 55.5918 9.70083 55.0663 9.70083C55.0663 9.67415 55.0776 9.63818 55.0643 9.62201C55.0146 9.56057 54.9568 9.5056 54.9062 9.45265V7.84034C54.9507 7.81367 54.9931 7.76557 55.0364 7.76516C55.599 7.76031 56.1621 7.76153 56.7251 7.76314C56.7477 7.76314 56.7704 7.78174 56.793 7.79184C56.81 7.81165 56.8419 7.83145 56.8419 7.85126C56.8447 8.41389 56.8439 8.97692 56.8439 9.53955V9.53915Z" fill="#F7F9F9"/>
<path d="M60.7206 3.88325V5.75505C60.6599 5.79466 60.6389 5.82053 60.6183 5.82053C60.0597 5.82255 59.5015 5.82215 58.943 5.82215C58.943 5.79547 58.9543 5.75707 58.9409 5.74454C58.8839 5.69038 58.8197 5.64349 58.7813 5.61278C58.7813 5.04044 58.7809 4.51015 58.7833 3.97985C58.7833 3.95964 58.8112 3.93903 58.8261 3.91882C58.8476 3.90669 58.8694 3.88446 58.8908 3.88446C59.5007 3.88244 60.1107 3.88285 60.7206 3.88285V3.88325Z" fill="#F7F9F9"/>
<path d="M58.7853 7.60067C58.8035 7.6609 58.7878 7.71142 58.7304 7.73406C58.6851 7.75184 58.6334 7.76114 58.5845 7.76114C58.059 7.76316 57.5332 7.76235 57.0077 7.76235C57.0077 7.73567 57.019 7.6997 57.0057 7.68353C56.956 7.6221 56.8982 7.56713 56.8477 7.51418V5.90187C56.8921 5.87519 56.9346 5.82709 56.9778 5.82669C57.5404 5.82184 58.1035 5.82305 58.6665 5.82467C58.6891 5.82467 58.7118 5.84326 58.7344 5.85336C58.7514 5.87317 58.7833 5.89297 58.7833 5.91278C58.7861 6.47541 58.7853 7.03845 58.7853 7.60108V7.60067Z" fill="#F7F9F9"/>
<path d="M6.41825 5.82397H4.64062C4.64062 5.20597 4.64062 4.58837 4.64062 3.97036C4.68185 3.94207 4.72227 3.88912 4.7639 3.88871C5.27439 3.88306 5.78488 3.88467 6.29538 3.88629C6.31841 3.88629 6.34145 3.90327 6.3649 3.91216C6.38268 3.93156 6.41623 3.95096 6.41623 3.97036C6.41906 4.58837 6.41865 5.20597 6.41865 5.82397H6.41825Z" fill="#F7F9F9"/>
<path d="M8.35966 7.76245H6.58203C6.58203 7.14444 6.58203 6.52684 6.58203 5.90884C6.62326 5.88054 6.66368 5.8276 6.70531 5.82719C7.2158 5.82153 7.72629 5.82315 8.23678 5.82477C8.25982 5.82477 8.28286 5.84174 8.3063 5.85063C8.32409 5.87004 8.35763 5.88944 8.35763 5.90884C8.36046 6.52684 8.36006 7.14444 8.36006 7.76245H8.35966Z" fill="#F7F9F9"/>
<path d="M10.2972 9.70093H8.51953C8.51953 9.08292 8.51953 8.46532 8.51953 7.84731C8.56076 7.81902 8.60118 7.76607 8.64281 7.76567C9.1533 7.76001 9.66379 7.76163 10.1743 7.76324C10.1973 7.76324 10.2204 7.78022 10.2438 7.78911C10.2616 7.80851 10.2951 7.82791 10.2951 7.84731C10.298 8.46532 10.2976 9.08292 10.2976 9.70093H10.2972Z" fill="#F7F9F9"/>
<path d="M55.0664 54.2979C55.625 54.2979 56.1832 54.2975 56.7418 54.2995C56.7628 54.2995 56.7838 54.3254 56.8044 54.3387C56.8178 54.3597 56.8424 54.3807 56.8424 54.4022C56.8444 55.0137 56.844 55.6252 56.844 56.2368H55.0664V54.2979Z" fill="#F7F9F9"/>
<path d="M8.36121 56.2373C8.36121 56.8493 8.36121 57.4612 8.35959 58.0728C8.35959 58.0938 8.33453 58.1148 8.32079 58.1358C8.29977 58.1492 8.27875 58.1746 8.25774 58.1746C7.64579 58.1766 7.03385 58.1762 6.42191 58.1762C6.42191 57.5643 6.4215 56.9523 6.42353 56.3408C6.42353 56.3198 6.44858 56.2988 6.46233 56.2778C6.48334 56.2644 6.50436 56.239 6.52538 56.239C7.13732 56.2369 7.74927 56.2373 8.36121 56.2373Z" fill="#F7F9F9"/>
<path d="M6.41977 58.1768C6.41977 58.7887 6.42017 59.4007 6.41815 60.0122C6.41815 60.0332 6.39309 60.0542 6.37935 60.0753C6.35833 60.0886 6.33731 60.1141 6.3163 60.1141C5.70435 60.1161 5.09241 60.1157 4.48047 60.1157C4.48047 59.5037 4.48047 58.8918 4.48209 58.2803C4.48209 58.2592 4.50715 58.2382 4.52089 58.2172C4.54191 58.2039 4.56292 58.1784 4.58394 58.1784C5.19588 58.1764 5.80783 58.1768 6.41977 58.1768Z" fill="#F7F9F9"/>
<path d="M56.8438 56.2373C57.4557 56.2373 58.0677 56.2369 58.6796 56.239C58.7006 56.239 58.7216 56.264 58.7427 56.2778C58.756 56.2988 58.7815 56.3198 58.7815 56.3408C58.7835 56.9527 58.7831 57.5647 58.7831 58.1762C58.1711 58.1762 57.5592 58.1762 56.9473 58.1746C56.9262 58.1746 56.9052 58.1496 56.8842 58.1358C56.8709 58.1148 56.8454 58.0938 56.8454 58.0728C56.8434 57.4608 56.8438 56.8489 56.8438 56.2373Z" fill="#F7F9F9"/>
<path d="M58.7813 58.1768C59.3932 58.1768 60.0052 58.1764 60.6171 58.1784C60.6381 58.1784 60.6591 58.2035 60.6802 58.2172C60.6935 58.2382 60.719 58.2592 60.719 58.2803C60.721 58.8922 60.7206 59.5041 60.7206 60.1157C60.1086 60.1157 59.4967 60.1157 58.8848 60.1141C58.8637 60.1141 58.8427 60.089 58.8217 60.0753C58.8084 60.0542 58.7829 60.0332 58.7829 60.0122C58.7809 59.4003 58.7813 58.7883 58.7813 58.1768Z" fill="#F7F9F9"/>
<path d="M52.9648 52.3155C52.8848 52.343 52.8613 52.3584 52.8379 52.3584C39.3452 52.3596 25.853 52.3596 12.3603 52.3584C12.3373 52.3584 12.3143 52.341 12.2912 52.3317C12.2734 52.3123 12.2403 52.2925 12.2403 52.2727C12.2383 38.7558 12.2383 25.2389 12.2383 11.722C12.2807 11.6945 12.3219 11.646 12.3656 11.644C12.5535 11.6351 12.7423 11.6403 12.9311 11.6403C26.0466 11.6403 39.1621 11.6403 52.2773 11.642C52.4887 11.642 52.7025 11.6117 52.9062 11.6614C52.9296 11.6876 52.9628 11.707 52.9628 11.7268C52.9648 25.2437 52.9648 38.7606 52.9648 52.3155Z" fill="#D1DDDE"/>
<path d="M26.6016 32H38.6016" stroke="black" stroke-width="3"/>
</svg>
