<svg width="49" height="49" viewBox="0 0 49 49" fill="none" xmlns="http://www.w3.org/2000/svg">
<path d="M3.15127 1.95999C3.15127 1.50589 3.15127 1.0518 3.15127 0.597709C3.15127 0.547085 3.18825 0.519803 3.27222 0.505859C3.5614 0.81748 3.38559 1.2552 3.57474 1.61472C3.88667 1.84207 4.26164 1.75962 4.61449 1.75962C15.9044 1.76416 27.1942 1.76325 38.4841 1.76325C40.4633 1.76325 42.4427 1.76083 44.4219 1.76538C44.7217 1.76598 45.0315 1.72839 45.3058 1.9033C45.6223 2.36558 45.5129 2.8609 45.418 3.3544C45.0867 3.75666 44.5665 3.45686 44.1512 3.703C43.9505 4.08131 44.0915 4.49297 44.1475 4.90189C44.1354 5.35053 44.3367 5.8316 43.9478 6.22203C43.5119 5.96952 43.8635 5.46057 43.5592 5.11621C43.3221 4.97949 43.0341 5.04254 42.7413 5.08771C42.474 5.52513 42.6367 5.95255 42.694 6.37633C42.6795 6.81981 42.8847 7.29876 42.484 7.67828C42.0671 7.41607 42.3997 6.91287 42.1384 6.60034C41.8609 6.51971 41.5649 6.51628 41.2502 6.59004C41.0259 7.01746 41.1959 7.46245 41.2566 7.90624C41.2893 8.16906 41.2854 8.43187 41.2854 8.69439C41.2863 19.3377 41.286 29.9807 41.2854 40.624C41.2854 40.8055 41.2942 40.9877 41.2675 41.1681C41.2357 41.6713 41.4003 42.1957 41.1089 42.6716C40.7719 42.6704 40.8234 42.3924 40.7976 42.1993C40.7531 41.865 40.7755 41.5258 40.7885 41.1884C40.7588 40.9468 40.7706 40.7043 40.7706 40.4621C40.7703 30.0225 40.7706 19.5829 40.7682 9.14332C40.7682 8.80382 40.8179 8.45643 40.6815 8.13207C40.1838 7.92625 8.59705 7.89654 7.95198 8.10146C7.77283 8.41247 7.83527 8.76289 7.83527 9.09998C7.83194 19.4183 7.83315 29.737 7.83073 40.0553C7.83073 40.4169 7.86831 40.7825 7.76555 41.139C7.71857 41.2578 7.65673 41.3597 7.50759 41.3582C7.44908 41.2993 7.40695 41.2305 7.38057 41.152C7.306 40.9168 7.31843 40.6731 7.31843 40.4312C7.31661 29.7106 7.31631 18.99 7.31783 8.26939C7.31783 8.14844 7.31692 8.02719 7.33086 7.90806C7.31267 7.4764 7.4124 7.03443 7.25326 6.62035C6.99196 6.45575 6.74521 6.47394 6.49088 6.57609C6.18957 6.93349 6.53726 7.47094 6.14864 7.80014C5.67818 7.40061 5.94403 6.86498 5.88552 6.39027C5.84945 5.97832 5.96707 5.55241 5.79549 5.15289C5.53783 4.99859 5.28926 5.02102 5.03827 5.11954C4.72998 5.47754 5.08798 6.01954 4.68875 6.34632C4.22223 5.94437 4.4896 5.40994 4.43109 4.93524C4.40593 4.52176 4.4902 4.09829 4.36349 3.71088C4.08037 3.54568 3.8318 3.56568 3.58444 3.66632C3.27373 4.02462 3.64143 4.57148 3.22584 4.89158C2.77599 4.46083 3.03244 3.91095 2.97393 3.41412C3.00121 2.92516 2.83874 2.41317 3.15066 1.95908L3.15127 1.95999Z" fill="#5DADFF"/>
<path d="M7.51565 7.7761V41.2232C7.17948 41.5218 6.72114 41.2859 6.35374 41.4848C6.12245 41.8243 6.31191 42.2408 6.16004 42.5948C6.13306 42.6555 6.09184 42.7046 6.03757 42.7428C5.67412 42.941 5.23791 42.7376 4.87051 42.9456C4.67833 43.2987 4.85233 43.7052 4.70046 44.0602C4.67227 44.1205 4.62983 44.1678 4.57405 44.2036C4.2209 44.3764 3.81682 44.2236 3.43518 44.3748C3.20783 44.7265 3.40699 45.1624 3.23996 45.5283C3.20935 45.5883 3.16448 45.6341 3.10628 45.6674C2.79375 45.8181 2.42787 45.6877 2.11746 45.8411C1.85374 46.2079 2.13353 46.699 1.81857 47.04C1.77341 47.0536 1.73521 47.0418 1.71854 46.9985C1.7052 46.9642 1.69853 46.9254 1.69823 46.8887C1.69702 46.4543 1.69732 46.0199 1.69732 45.5859C1.43632 45.2742 1.50241 44.8974 1.5021 44.5404C1.49756 39.8178 1.49907 35.095 1.49907 30.3725C1.49907 21.7548 1.49786 13.137 1.50241 4.51924C1.50241 4.14336 1.4248 3.74504 1.69732 3.41311C1.69732 2.95902 1.69732 2.50493 1.69732 2.05083C1.69732 2.00021 1.7343 1.97293 1.81827 1.95898C2.11807 2.29182 1.89132 2.74713 2.08654 3.11847C2.39695 3.35612 2.85135 3.11847 3.15145 3.41311C3.15145 3.86721 3.15145 4.3213 3.15145 4.77539C3.15145 4.82601 3.18843 4.8533 3.2724 4.86724C3.71679 4.60321 4.16118 4.60321 4.60558 4.86724C4.60558 5.32133 4.60558 5.77543 4.60558 6.22952C4.60558 6.28014 4.64256 6.30742 4.72653 6.32137C5.17092 6.05734 5.61531 6.05734 6.0597 6.32137C6.0597 6.77546 6.0597 7.22955 6.0597 7.68365C6.0597 7.73427 6.09669 7.76155 6.18065 7.7755C6.62505 7.51147 7.06944 7.51147 7.51383 7.7755L7.51565 7.7761Z" fill="#3184D8"/>
<path d="M40.9669 41.2236C40.9669 41.6777 40.9669 42.1318 40.9669 42.5859C40.9669 42.6365 41.0039 42.6638 41.0878 42.6778C41.4804 42.4125 41.9027 42.4959 42.324 42.5717C42.388 42.5977 42.441 42.6396 42.4825 42.6944C42.6817 43.0588 42.4928 43.4941 42.6741 43.8597C43.0397 44.0631 43.4489 43.8851 43.8048 44.0382C43.8651 44.0664 43.9127 44.1092 43.9485 44.1652C44.1222 44.5202 43.9652 44.9279 44.1158 45.2929C44.479 45.5415 44.9231 45.3202 45.2892 45.5087C45.3517 45.5463 45.3969 45.5978 45.4278 45.6633C45.5208 46.1317 45.6097 46.5991 45.3302 47.0405C45.0182 47.3008 44.6412 47.2342 44.2841 47.2345C38.9138 47.2387 33.5438 47.2372 28.1735 47.2375C20.3199 47.2375 12.4666 47.2369 4.61307 47.2399C4.27508 47.2399 3.92587 47.1838 3.60273 47.3554C3.3581 47.6985 3.57818 48.1748 3.27141 48.4949C3.22624 48.5085 3.18805 48.4967 3.17137 48.4534C3.15804 48.4191 3.15137 48.3803 3.15106 48.3436C3.14985 47.9092 3.15015 47.4748 3.15015 47.0408C2.87703 46.556 2.87703 46.0713 3.15015 45.5866C3.48269 45.2874 3.93769 45.5121 4.30903 45.3165C4.56215 44.9667 4.28751 44.4723 4.60459 44.1325C4.93712 43.8333 5.39212 44.0579 5.76346 43.8624C6.01658 43.5126 5.74194 43.0182 6.05902 42.6784C6.39216 42.3783 6.84868 42.6062 7.21517 42.4107C7.46555 42.1006 7.20607 41.6413 7.51345 41.3455C7.61015 41.3297 7.61894 41.3209 7.6347 41.2242C7.96633 40.952 8.36465 41.0299 8.74053 41.0296C16.5911 41.0251 24.4419 41.0263 32.2924 41.0263C34.8554 41.0263 37.4184 41.0239 39.9817 41.029C40.3197 41.0296 40.675 40.9757 40.9666 41.2242L40.9669 41.2236Z" fill="#1868B8"/>
<path d="M42.423 7.65506C42.4682 7.6687 42.5061 7.65688 42.5231 7.61383C42.5364 7.57988 42.5434 7.54108 42.5434 7.5044C42.5449 7.11033 42.5443 6.71626 42.5443 6.32219C42.9668 6.04209 43.4243 6.14243 43.8775 6.20093C43.9226 6.21457 43.9605 6.20275 43.9775 6.15971C43.9908 6.12575 43.9978 6.08695 43.9978 6.05027C43.9993 5.6562 43.9987 5.26213 43.9987 4.86806C44.2903 4.58402 44.7062 4.7853 45.0391 4.59797C45.2907 4.25027 45.0142 3.75556 45.3319 3.41393V1.9595C45.0588 1.47479 45.0588 0.990079 45.3319 0.505369C45.377 0.491729 45.4152 0.503551 45.4319 0.546899C45.4453 0.581153 45.4519 0.619954 45.4522 0.656633C45.4534 1.09102 45.4531 1.52541 45.4531 1.9595C45.7532 2.29234 45.5262 2.74764 45.7214 3.11898C46.0318 3.35664 46.4859 3.11898 46.7863 3.41363C47.047 3.72525 46.9812 4.10204 46.9815 4.45913C46.9861 9.16163 46.9846 13.8638 46.9846 18.5663C46.9846 27.2041 46.9858 35.8422 46.9812 44.4799C46.9812 44.8558 47.0585 45.2541 46.7863 45.5858C46.3016 45.8586 45.8166 45.8586 45.3319 45.5858C45.036 45.2523 45.2509 44.7997 45.0712 44.4339C44.7117 44.1741 44.2176 44.4487 43.8775 44.1313C43.5807 43.7982 43.7977 43.3453 43.6146 42.9779C43.2572 42.7196 42.7631 42.994 42.423 42.6769C42.1235 42.3441 42.35 41.8891 42.1538 41.5177C41.844 41.2795 41.3896 41.5174 41.0898 41.2228V7.77631C41.5124 7.49622 41.9698 7.59655 42.423 7.65506Z" fill="#3184D8"/>
<path d="M46.7852 45.5865V3.41406C47.2496 3.41406 47.7143 3.41406 48.1787 3.41406C48.199 3.44589 48.2356 3.47742 48.2369 3.50985C48.2429 3.67112 48.2396 3.83269 48.2396 3.99426V45.006C48.2396 45.1676 48.2402 45.3291 48.2387 45.4907C48.2387 45.5086 48.2275 45.5262 48.2223 45.5419C48.2069 45.5577 48.1929 45.5847 48.1787 45.5847C47.7143 45.5868 47.2496 45.5865 46.7852 45.5865Z" fill="#000001"/>
<path d="M1.69753 3.41408V45.5865C1.23313 45.5865 0.768432 45.5865 0.304032 45.5865C0.283722 45.5547 0.247043 45.5232 0.245831 45.4907C0.239768 45.3295 0.243102 45.1679 0.243102 45.0063V3.99458C0.243102 3.83301 0.242496 3.67144 0.244012 3.50987C0.244012 3.49198 0.255228 3.4744 0.260684 3.45864C0.276144 3.44287 0.290088 3.4159 0.304335 3.4159C0.768735 3.41377 1.23344 3.41408 1.69784 3.41408H1.69753Z" fill="#010101"/>
<path d="M45.3322 0.505186V1.95931C31.3442 1.95931 17.3564 1.95931 3.36833 1.9584C3.35075 1.9584 3.33317 1.94689 3.32317 1.94325C3.30316 1.92476 3.27557 1.91112 3.27527 1.89747C3.27315 1.43338 3.27345 0.969282 3.27345 0.504883H45.3322V0.505186Z" fill="black"/>
<path d="M3.27344 48.494C3.27344 48.0299 3.27344 47.5658 3.27344 47.1014C3.30496 47.0808 3.33619 47.0435 3.36832 47.0426C3.54989 47.0368 3.73147 47.0399 3.91335 47.0399H45.3322C45.3322 47.504 45.3322 47.9681 45.3322 48.4325C45.3007 48.4531 45.2695 48.4903 45.2373 48.4913C45.0557 48.497 44.8742 48.494 44.6923 48.494H3.27344Z" fill="#020202"/>
<path d="M45.332 45.5859H46.7865C46.7865 46.0449 46.7865 46.5038 46.7853 46.9625C46.7853 46.9782 46.7665 46.994 46.7561 47.0098C46.7404 47.0198 46.7246 47.0389 46.7089 47.0389C46.2499 47.0404 45.791 47.0401 45.332 47.0401V45.5859Z" fill="#070808"/>
<path d="M46.7863 3.41314C46.3674 3.41314 45.9488 3.41344 45.5298 3.41192C45.5141 3.41192 45.4983 3.39252 45.4829 3.38252C45.4729 3.36676 45.4544 3.35099 45.4544 3.33493C45.4528 2.87629 45.4531 2.41765 45.4531 1.95901C45.8721 1.95901 46.2907 1.95871 46.7096 1.96022C46.7254 1.96022 46.7412 1.97962 46.7566 1.98963C46.7666 2.00539 46.7851 2.02115 46.7851 2.03722C46.7866 2.49586 46.7863 2.9545 46.7863 3.41314Z" fill="#020203"/>
<path d="M3.15352 3.41311C2.73459 3.41311 2.31596 3.41342 1.89703 3.4119C1.88127 3.4119 1.8655 3.3925 1.85004 3.3825C1.84004 3.36673 1.82155 3.35097 1.82155 3.3349C1.82003 2.87626 1.82034 2.41762 1.82034 1.95898H3.15352V3.41311Z" fill="#040404"/>
<path d="M3.15349 45.586V47.0401H1.82031C1.82031 46.5815 1.82031 46.1228 1.82153 45.6642C1.82153 45.6484 1.84002 45.6326 1.85002 45.6166C1.86578 45.6063 1.88124 45.5872 1.89701 45.5872C2.31593 45.5857 2.73456 45.586 3.15349 45.586Z" fill="#090A0A"/>
<path d="M40.9686 41.2233H7.63672C7.63672 30.0956 7.63672 18.9679 7.63672 7.84023C7.66764 7.81901 7.69765 7.78051 7.72948 7.77899C7.87043 7.77232 8.012 7.77596 8.15356 7.77596C18.9196 7.77596 29.6857 7.77596 40.4518 7.77717C40.6103 7.77717 40.771 7.75505 40.9237 7.79142C40.9416 7.81082 40.9668 7.82537 40.9668 7.83992C40.9686 18.9676 40.9683 30.0953 40.9683 41.223L40.9686 41.2233Z" fill="#9ACCFF"/>
<path d="M7.51696 41.3439C7.51696 41.7626 7.51726 42.1815 7.51574 42.6001C7.51574 42.6159 7.49634 42.6313 7.48634 42.6471C7.47058 42.6571 7.45481 42.6756 7.43875 42.6756C6.98011 42.6771 6.52147 42.6768 6.06252 42.6768C6.06252 42.2179 6.06222 41.7589 6.06374 41.3003C6.06374 41.2845 6.08253 41.2688 6.09284 41.253C6.1086 41.243 6.12436 41.2239 6.14013 41.2239C6.59907 41.2224 7.05801 41.2227 7.51696 41.2227V41.3439Z" fill="#9ACCFF"/>
<path d="M42.4259 7.6553C42.4395 7.70047 42.4277 7.73836 42.3846 7.75533C42.3507 7.76867 42.3119 7.77564 42.2752 7.77564C41.8811 7.77716 41.4868 7.77655 41.0927 7.77655C41.0927 7.75655 41.1012 7.72957 41.0912 7.71744C41.0539 7.67137 41.0105 7.63014 40.9727 7.59043V6.38123C41.006 6.36123 41.0378 6.32515 41.0703 6.32485C41.4922 6.32121 41.9145 6.32212 42.3368 6.32333C42.3537 6.32333 42.3707 6.33728 42.3877 6.34486C42.4004 6.35971 42.4244 6.37456 42.4244 6.38942C42.4265 6.81138 42.4259 7.23364 42.4259 7.6556V7.6553Z" fill="#9ACCFF"/>
<path d="M45.3294 3.41341V4.81722C45.284 4.84693 45.2682 4.86633 45.2528 4.86633C44.8338 4.86785 44.4152 4.86754 43.9963 4.86754C43.9963 4.84753 44.0048 4.81874 43.9948 4.80934C43.952 4.76872 43.9038 4.73356 43.875 4.71052C43.875 4.28128 43.8747 3.88357 43.8765 3.48586C43.8765 3.47071 43.8975 3.45525 43.9087 3.44009C43.9247 3.431 43.9411 3.41432 43.9572 3.41432C44.4146 3.41281 44.872 3.41311 45.3294 3.41311V3.41341Z" fill="#9ACCFF"/>
<path d="M43.879 6.20022C43.8926 6.24539 43.8808 6.28328 43.8378 6.30025C43.8038 6.31359 43.765 6.32056 43.7283 6.32056C43.3343 6.32208 42.9399 6.32147 42.5458 6.32147C42.5458 6.30147 42.5543 6.27449 42.5443 6.26236C42.507 6.21629 42.4637 6.17506 42.4258 6.13535V4.92615C42.4591 4.90615 42.491 4.87007 42.5234 4.86977C42.9453 4.86613 43.3676 4.86704 43.7899 4.86826C43.8069 4.86826 43.8238 4.8822 43.8408 4.88978C43.8535 4.90463 43.8775 4.91949 43.8775 4.93434C43.8796 5.3563 43.879 5.77856 43.879 6.20052V6.20022Z" fill="#9ACCFF"/>
<path d="M4.60662 4.86842H3.27344C3.27344 4.40493 3.27344 3.94175 3.27344 3.47826C3.30436 3.45704 3.33467 3.41733 3.36589 3.41702C3.74875 3.41278 4.13161 3.41399 4.51446 3.41521C4.53174 3.41521 4.54902 3.42794 4.5666 3.43461C4.57994 3.44916 4.6051 3.46371 4.6051 3.47826C4.60722 3.94175 4.60692 4.40493 4.60692 4.86842H4.60662Z" fill="#9ACCFF"/>
<path d="M6.05974 6.32155H4.72656C4.72656 5.85806 4.72656 5.39487 4.72656 4.93138C4.75748 4.91016 4.7878 4.87045 4.81902 4.87015C5.20187 4.86591 5.58473 4.86712 5.96759 4.86833C5.98487 4.86833 6.00215 4.88106 6.01973 4.88773C6.03306 4.90228 6.05822 4.91683 6.05822 4.93138C6.06035 5.39487 6.06004 5.85806 6.06004 6.32155H6.05974Z" fill="#9ACCFF"/>
<path d="M7.51287 7.77663H6.17969C6.17969 7.31314 6.17969 6.84995 6.17969 6.38646C6.21061 6.36524 6.24092 6.32553 6.27214 6.32523C6.655 6.32098 7.03786 6.3222 7.42071 6.32341C7.43799 6.32341 7.45527 6.33614 7.47285 6.34281C7.48619 6.35736 7.51135 6.37191 7.51135 6.38646C7.51347 6.84995 7.51317 7.31314 7.51317 7.77663H7.51287Z" fill="#9ACCFF"/>
<path d="M41.0898 41.2227C41.5088 41.2227 41.9274 41.2224 42.3463 41.2239C42.3621 41.2239 42.3779 41.2433 42.3933 41.2533C42.4033 41.2691 42.4218 41.2848 42.4218 41.3009C42.4233 41.7595 42.423 42.2182 42.423 42.6768H41.0898V41.2227Z" fill="#9ACCFF"/>
<path d="M6.06383 42.6778C6.06383 43.1367 6.06383 43.5956 6.06262 44.0543C6.06262 44.07 6.04382 44.0858 6.03352 44.1016C6.01776 44.1116 6.00199 44.1307 5.98623 44.1307C5.52729 44.1322 5.06834 44.1319 4.6094 44.1319C4.6094 43.6729 4.6091 43.214 4.61061 42.7554C4.61061 42.7396 4.62941 42.7238 4.63971 42.7081C4.65548 42.6981 4.67124 42.679 4.687 42.679C5.14594 42.6775 5.60489 42.6778 6.06383 42.6778Z" fill="#9ACCFF"/>
<path d="M4.60678 44.1319C4.60678 44.5908 4.60708 45.0497 4.60556 45.5084C4.60556 45.5242 4.58677 45.5399 4.57646 45.5557C4.5607 45.5657 4.54494 45.5848 4.52917 45.5848C4.07023 45.5863 3.61129 45.586 3.15234 45.586C3.15234 45.127 3.15234 44.6681 3.15356 44.2095C3.15356 44.1937 3.17235 44.1779 3.18266 44.1622C3.19842 44.1522 3.21418 44.1331 3.22995 44.1331C3.68889 44.1316 4.14783 44.1319 4.60678 44.1319Z" fill="#9ACCFF"/>
<path d="M42.4219 42.6778C42.8808 42.6778 43.3398 42.6775 43.7987 42.679C43.8145 42.679 43.8303 42.6978 43.846 42.7081C43.856 42.7238 43.8751 42.7396 43.8751 42.7554C43.8766 43.2143 43.8763 43.6732 43.8763 44.1319C43.4174 44.1319 42.9584 44.1319 42.4995 44.1307C42.4837 44.1307 42.468 44.1119 42.4522 44.1016C42.4422 44.0858 42.4231 44.07 42.4231 44.0543C42.4216 43.5953 42.4219 43.1364 42.4219 42.6778Z" fill="#9ACCFF"/>
<path d="M43.875 44.1319C44.334 44.1319 44.7929 44.1316 45.2519 44.1331C45.2676 44.1331 45.2834 44.1519 45.2991 44.1622C45.3091 44.1779 45.3282 44.1937 45.3282 44.2095C45.3298 44.6684 45.3295 45.1273 45.3295 45.586C44.8705 45.586 44.4116 45.586 43.9526 45.5848C43.9369 45.5848 43.9211 45.566 43.9053 45.5557C43.8953 45.5399 43.8762 45.5242 43.8762 45.5084C43.8747 45.0494 43.875 44.5905 43.875 44.1319Z" fill="#9ACCFF"/>
<path d="M39.5127 39.7357C39.4527 39.7563 39.4351 39.7679 39.4175 39.7679C29.2984 39.7688 19.1795 39.7688 9.0603 39.7679C9.04302 39.7679 9.02574 39.7548 9.00846 39.7479C8.99512 39.7333 8.97027 39.7184 8.97027 39.7036C8.96875 29.5662 8.96875 19.4289 8.96875 9.29149C9.00058 9.27088 9.0315 9.2345 9.06424 9.23299C9.20519 9.22632 9.34676 9.23026 9.48832 9.23026C19.3247 9.23026 29.161 9.23026 38.9971 9.23147C39.1556 9.23147 39.316 9.20874 39.4688 9.24602C39.4863 9.26573 39.5112 9.28028 39.5112 9.29513C39.5127 19.4325 39.5127 29.5699 39.5127 39.7357Z" fill="#4A99E9"/>
<g filter="url(#filter0_d_327_11161)">
<path d="M30.4388 21.2352C30.4483 21.3766 30.4483 21.518 30.4483 21.6607C30.4483 26.0095 27.2202 31.0249 21.3175 31.0249V31.0223C19.5738 31.0249 17.8663 30.5127 16.3984 29.5469C16.652 29.5782 16.9068 29.5938 17.1623 29.5945C18.6073 29.5958 20.011 29.0985 21.1478 28.1829C19.7746 28.1562 18.5704 27.2379 18.1497 25.8974C18.6308 25.9926 19.1264 25.973 19.5986 25.8407C18.1014 25.5305 17.0244 24.1815 17.0244 22.6148C17.0244 22.6005 17.0244 22.5868 17.0244 22.5731C17.4704 22.8279 17.9699 22.9693 18.4808 22.985C17.0707 22.0185 16.6361 20.0947 17.4876 18.5906C19.1169 20.6467 21.5208 21.8967 24.1014 22.029C23.8428 20.8859 24.1961 19.6881 25.0298 18.8845C26.3223 17.6385 28.3551 17.7024 29.5701 19.0273C30.2888 18.8819 30.9776 18.6115 31.608 18.2283C31.3684 18.9901 30.867 19.6372 30.1973 20.0485C30.8334 19.9716 31.4548 19.7969 32.0401 19.5304C31.6093 20.1925 31.0666 20.7692 30.4388 21.2352Z" fill="white"/>
</g>
<defs>
<filter id="filter0_d_327_11161" x="16.3984" y="17.9902" width="15.6406" height="14.1264" filterUnits="userSpaceOnUse" color-interpolation-filters="sRGB">
<feFlood flood-opacity="0" result="BackgroundImageFix"/>
<feColorMatrix in="SourceAlpha" type="matrix" values="0 0 0 0 0 0 0 0 0 0 0 0 0 0 0 0 0 0 127 0" result="hardAlpha"/>
<feOffset dy="1.09128"/>
<feComposite in2="hardAlpha" operator="out"/>
<feColorMatrix type="matrix" values="0 0 0 0 0.215019 0 0 0 0 0.518173 0 0 0 0 0.825166 0 0 0 1 0"/>
<feBlend mode="normal" in2="BackgroundImageFix" result="effect1_dropShadow_327_11161"/>
<feBlend mode="normal" in="SourceGraphic" in2="effect1_dropShadow_327_11161" result="shape"/>
</filter>
</defs>
</svg>
